<svg xmlns="http://www.w3.org/2000/svg" viewBox="0 0 520 200" width="520" height="200">
  <!-- Horizontal Logo Version (Redesigned Emblem Left, Name & Motto Right) -->
  <style>
    .gold-stroke { fill: none; stroke: #C5A880; stroke-width: 2.5; stroke-linecap: round; stroke-linejoin: round; }
    .gold-stroke-thin { fill: none; stroke: #C5A880; stroke-width: 1.5; stroke-linecap: round; stroke-linejoin: round; }
    .gold-fill { fill: #C5A880; }
    
    .school-title {
      font-family: 'Playfair Display', Georgia, serif;
      font-size: 25px;
      font-weight: 700;
      fill: #0A192F;
      letter-spacing: 0.16em;
    }
    .school-motto {
      font-family: 'Plus Jakarta Sans', system-ui, sans-serif;
      font-size: 10px;
      font-weight: 600;
      fill: #C5A880;
      letter-spacing: 0.25em;
      text-transform: uppercase;
    }
  </style>

  <!-- Emblem Group on the Left -->
  <g transform="translate(10, 0)">
    <!-- Outer Gold Circle -->
    <circle class="gold-stroke" cx="100" cy="100" r="70" />
    <!-- Shield -->
    <path class="gold-stroke" d="M 70,65 L 130,65 C 130,65 130,115 100,145 C 70,115 70,65 70,65 Z" />
    <!-- Torch Flame -->
    <path class="gold-fill" d="M 100,70 Q 106,78 110,87 L 104,87 L 104,96 L 96,96 L 96,87 L 90,87 Q 94,78 100,70 Z" />
    <!-- Torch Handle & Cup -->
    <path class="gold-stroke-thin" d="M 94,96 L 106,96" />
    <path class="gold-stroke-thin" d="M 100,96 L 100,122" />
    <!-- Open Book -->
    <path class="gold-stroke-thin" d="M 78,130 C 88,124 96,128 100,132 C 104,128 112,124 122,130" />
    <path class="gold-stroke-thin" d="M 80,134 C 89,129 96,132 100,135 C 104,132 111,129 120,134" />
  </g>

  <!-- Typography on the Right -->
  <text x="200" y="101" class="school-title">AURORA ACADEMY</text>
  <text x="200" y="128" class="school-motto">Learning Beyond Tomorrow</text>
</svg>
